<svg width="114" height="30" viewBox="0 0 114 30" fill="none" xmlns="http://www.w3.org/2000/svg">
<path d="M0 17.5056V12.8953L14.2997 5.21158V9.82183L4.42293 15.0668V15.3341L14.2997 20.5791V25.1893L0 17.5056Z" fill="#141C28"/>
<path d="M27.0899 25.7906C25.8484 25.7906 24.9505 25.5234 24.3962 24.9889C23.8642 24.4321 23.5981 23.7751 23.5981 23.0178V21.8486C23.5981 21.0913 23.8642 20.4454 24.3962 19.9109C24.9505 19.3541 25.8484 19.0757 27.0899 19.0757C28.3314 19.0757 29.2182 19.3541 29.7503 19.9109C30.3046 20.4454 30.5817 21.0913 30.5817 21.8486V23.0178C30.5817 23.7751 30.3046 24.4321 29.7503 24.9889C29.2182 25.5234 28.3314 25.7906 27.0899 25.7906Z" fill="#141C28"/>
<path d="M46.8304 25.7906C44.9238 25.7906 43.2611 25.5011 41.8422 24.922C40.4455 24.343 39.3924 23.5523 38.6829 22.5501L41.4431 19.9777C42.1082 20.7127 42.8842 21.2918 43.771 21.7149C44.6799 22.1158 45.7109 22.3163 46.8637 22.3163C47.8392 22.3163 48.604 22.1715 49.1583 21.882C49.7125 21.5702 49.9897 21.1025 49.9897 20.4788C49.9897 19.9889 49.8012 19.6548 49.4243 19.4766C49.0474 19.2762 48.5264 19.1203 47.8613 19.0089L45.1012 18.5746C44.3252 18.4633 43.6047 18.2962 42.9396 18.0735C42.2745 17.8285 41.6981 17.5056 41.2103 17.1047C40.7226 16.7038 40.3346 16.2138 40.0464 15.6347C39.7582 15.0557 39.6141 14.3541 39.6141 13.5301C39.6141 11.7261 40.3014 10.3118 41.6759 9.28731C43.0504 8.26281 44.9792 7.75056 47.4623 7.75056C49.1472 7.75056 50.5772 7.98441 51.7522 8.45212C52.9494 8.89755 53.9027 9.54343 54.6121 10.3898L52.1513 13.196C51.6413 12.6392 50.9873 12.1715 50.1892 11.7929C49.3911 11.4143 48.4267 11.2249 47.296 11.2249C45.3894 11.2249 44.4361 11.804 44.4361 12.9621C44.4361 13.4744 44.6245 13.8307 45.0014 14.0312C45.3783 14.2094 45.8993 14.3541 46.5644 14.4655L49.2913 14.8998C50.0673 15.0111 50.7878 15.1893 51.4529 15.4343C52.118 15.657 52.6944 15.9688 53.1822 16.3697C53.6921 16.7706 54.0911 17.2606 54.3793 17.8396C54.6676 18.4187 54.8117 19.1203 54.8117 19.9443C54.8117 21.7483 54.1133 23.1737 52.7166 24.2205C51.342 25.2673 49.38 25.7906 46.8304 25.7906Z" fill="#141C28"/>
<path d="M64.0436 25.3898L57.8914 8.15145H63.0792L65.3073 15.5345L66.9368 21.2806H67.2028L68.8323 15.5345L71.0604 8.15145H76.0487L69.8965 25.3898H64.0436Z" fill="#141C28"/>
<path d="M79.3612 30L90.0361 0H94.459L83.7841 30H79.3612Z" fill="#141C28"/>
<path d="M99.7003 20.5791L109.577 15.3341V15.0668L99.7003 9.82183V5.21158L114 12.8953V17.5056L99.7003 25.1893V20.5791Z" fill="#141C28"/>
<path d="M79.3612 30L90.0361 0H94.459L83.7841 30H79.3612Z" fill="#C14C2D"/>
<path d="M27.1549 25.7906C25.9133 25.7906 25.0154 25.5234 24.4612 24.9889C23.9291 24.4321 23.6631 23.7751 23.6631 23.0178V21.8486C23.6631 21.0913 23.9291 20.4454 24.4612 19.9109C25.0154 19.3541 25.9133 19.0757 27.1549 19.0757C28.3964 19.0757 29.2832 19.3541 29.8153 19.9109C30.3695 20.4454 30.6466 21.0913 30.6466 21.8486V23.0178C30.6466 23.7751 30.3695 24.4321 29.8153 24.9889C29.2832 25.5234 28.3964 25.7906 27.1549 25.7906Z" fill="#C14C2D"/>
</svg>
